<svg id="Layer_1" enable-background="new 0 0 512 512" height="512" viewBox="0 0 512 512" width="512" xmlns="http://www.w3.org/2000/svg"><g><g><g><g><g><g id="XMLID_1102_"><g id="XMLID_1103_"><g id="XMLID_1104_"><g id="XMLID_1105_"><g id="XMLID_1106_"><g id="XMLID_1107_"><g id="XMLID_1108_"><g id="XMLID_1109_"><g id="XMLID_1110_"><g id="XMLID_1203_"><g id="XMLID_1204_"><g id="XMLID_1205_"><g id="XMLID_1220_"><g id="XMLID_1388_"><g id="XMLID_1389_"><circle cx="256" cy="256" fill="#bee75e" r="256"/></g></g></g></g></g></g></g></g></g></g></g></g></g></g></g></g></g></g></g><path d="m284.743 510.404c112.747-12.597 203.368-98.421 223.21-208.819l-243.419-243.419-207.534 97.586 112.555 107.693c-.45 4.165-9.859 66.585-9.859 66.585l88.954 88.9-13.65 41.731z" fill="#00cb75"/><g><g><path d="m235 367.387h30v93.274h-30z" fill="#f9a62d"/></g><g><path d="m303.784 367.387h30v93.274h-30z" fill="#f48a0b"/></g><path d="m134.765 164.942-77.765-9.19c7.776-57.97 80.035-63.626 80.035-63.626z" fill="#f9a62d"/><path d="m132.957 164.942s-35.939-14.905-35.939-34.333c0-29.989 40.018-38.483 40.018-38.483z" fill="#666"/><path d="m232.809 107.679 45.512 20.325c8.849-63.914-23.704-98.11-83.61-93.609-50.711 3.81-57.676 57.731-57.676 57.731z" fill="#494949"/><g fill="#fff"><path d="m123.176 130.871c0-35.454 28.899-60.856 64.196-64.196 47.322-4.477 86.823 20.15 90.594 58.09 5.546 55.811-55.139 70.302-90.594 70.302s-64.196-28.741-64.196-64.196z"/><path d="m246.613 121.111s16.79 42.599 35.891 54.382c123.625 76.26 81.12 113.749 148.191 236.108 0 0-187.612.302-271.003-81.573-49.85-48.944-40.478-125.078-22.775-160.686z"/><path d="m430.699 411.598s-187.617.308-271.003-81.568c-29-28.471-37.962-66.145-36.895-99.684.76-24.125 123.809-109.232 123.809-109.232s7.885 20 19 36.385c5.096 7.529 10.885 14.289 16.894 17.991 108.222 66.76 89.126 103.809 127.694 194.089 5.492 12.845 12.146 26.778 20.501 42.019z"/></g><path d="m430.7 411.595s-70.32.12-143.99-18.58v-214.91c103.53 65.12 85.43 102.38 123.49 191.47 5.49 12.85 12.14 26.78 20.5 42.02z" fill="#f7efd0"/><path d="m412.964 360.569 32.036 55.636s-91.17 6.689-105.79-68.846z" fill="#494949"/><path d="m430.699 367.607c-7.029.961-13.865 1.615-20.5 1.971-112.559 6.154-155.822-65.24-160.397-84.273-9.025-37.542-12.273-66.6-57.215-59.561-30.283 4.743-43.859 17.056-69.785 4.602.76-24.125 6.712-46.106 14.115-61.001 61.828 31.318 134.821-11.108 134.821-11.108 125.55 11.904 158.961 209.37 158.961 209.37z" fill="#494949"/><path d="m430.7 367.605c-7.03.96-13.87 1.62-20.5 1.97-58.39 3.2-98.13-14.48-123.49-34.88v-174.08c113.26 25.37 143.99 206.99 143.99 206.99z" fill="#303030"/><ellipse cx="200.748" cy="123.55" fill="#494949" rx="19.017" ry="19.017" transform="matrix(.924 -.383 .383 .924 -32 86.228)"/></g></g></svg>