<?xml version="1.0" encoding="utf-8"?>
<!-- Generator: Adobe Illustrator 24.1.1, SVG Export Plug-In . SVG Version: 6.00 Build 0)  -->
<svg version="1.1" id="Layer_1" xmlns="http://www.w3.org/2000/svg" xmlns:xlink="http://www.w3.org/1999/xlink" x="0px" y="0px"
	 viewBox="0 0 500 500" style="enable-background:new 0 0 500 500;" xml:space="preserve">
<style type="text/css">
	.st0{fill:url(#SVGID_1_);}
	.st1{fill:#FFFFFF;}
</style>
<g>
	
		<linearGradient id="SVGID_1_" gradientUnits="userSpaceOnUse" x1="-0.0752" y1="-0.1094" x2="1.1415" y2="-0.1094" gradientTransform="matrix(1.836970e-14 -300 300 1.836970e-14 282.8264 409.9521)">
		<stop  offset="0" style="stop-color:#FF780B"/>
		<stop  offset="1" style="stop-color:#FFA322"/>
	</linearGradient>
	<path class="st0" d="M352.39,432.5H147.61c-44.24,0-80.11-35.87-80.11-80.11V147.61c0-44.24,35.87-80.11,80.11-80.11h204.79
		c44.24,0,80.11,35.87,80.11,80.11v204.79C432.5,396.65,396.63,432.5,352.39,432.5z"/>
	<path class="st1" d="M208.77,385.57c-0.45-0.13-0.89-0.27-1.34-0.4c-37.68-10.63-55.41-52.52-45.15-86.5
		c5.39-17.85,16.98-31.09,32.11-41.4c10.16-6.94,20.71-13.31,30.87-20.23c14.54-9.93,25.54-22.78,31-39.77
		c6.69-20.78,4.48-40.26-10.38-56.9c-15.62-17.5-35.75-24.32-58.86-21.34c-29.64,3.82-51.81,19.5-67.89,44.27
		c-0.66,1.01-1.14,2.12-1.7,3.19c6.67-4.31,13.58-7.08,21.28-8.01c15.6-1.9,30.6,8.43,33.54,23.41c2.26,11.52-0.73,22.06-7.59,31.18
		c-7.32,9.73-15.37,18.94-23.34,28.18c-18.37,21.33-27.82,45.53-23.87,73.94c3.32,23.86,15.52,42.51,35.33,55.87
		C169.57,382.37,188.8,385.66,208.77,385.57"/>
	<path class="st1" d="M258.89,232.04c10.8-0.1,21.35,1.97,31.75,4.96c14.86,4.28,28.77,10.7,41.87,18.83
		c12.41,7.71,25.73,9.9,39.94,7.53c2.79-0.46,5.54-1.37,8.15-2.43c0.92-0.38,1.95-1.78,2.01-2.77c0.21-3.42,0.24-6.87-0.06-10.28
		c-1.03-11.57-4.71-22.26-11.29-31.88c-7.98-11.66-19.16-19.04-32.39-23.47c-2.24-0.75-3.09-1.89-3.55-4
		c-0.64-2.97-1.45-5.94-2.49-8.78c-2.01-5.45-4.72-10.5-9.25-14.73c-0.84,1.03-1.56,1.82-2.17,2.69c-6.3,9.04-8.77,19.25-8.78,30.08
		c0,3.1-0.89,5.37-3.38,7.01c-6.89,4.53-13.54,9.53-20.8,13.37C278.85,223.27,268.76,227.47,258.89,232.04"/>
	<path class="st1" d="M296.48,363.16c3.32-9.59,4.89-18.8,4.83-28.34c-0.08-12.53-2.34-24.65-8.64-35.4
		c-14.26-24.35-35.7-37.13-64.18-36.93c-14.09,0.1-26.62,4.92-36.87,14.89c-5.04,4.89-8.88,10.61-11.78,17.76
		c26.79-28.32,70.31-19.81,86.88,5.71c10.06,15.5,12.61,32.08,6.63,49.58c-6.02,17.64-19,28.55-36.09,35.21
		c31.88-0.09,63.62-0.52,96.1-3.47C325.46,366.54,311.4,364.32,296.48,363.16"/>
	<path class="st1" d="M383.89,296.76c-0.32-5.8-3.19-9.68-7.53-12.58c-5.33-3.55-11.46-4.45-17.68-5.02
		c-11.29-1.02-22.14-3.69-32.11-9.21c-8.52-4.72-16.69-10.12-25.43-14.38c-13.75-6.7-28.51-10.03-43.74-11.41
		c-10.44-0.96-20.62-0.1-30.59,3.14c-1.17,0.38-2.26,1-3.39,1.51c1.31,0.49,2.4,0.51,3.47,0.49c11.74-0.27,23.19,1.36,34.18,5.54
		c22.82,8.66,39.38,24.47,51.15,45.54c1.12,2.01,2.47,3.48,4.59,3.69c5.34,0.51,10.74,1.23,16.07,0.92
		c6.86-0.39,13.02-3.53,19.2-6.4c7.26-3.37,14.89-5.07,22.95-3.75C377.81,295.26,380.56,296.01,383.89,296.76"/>
	<path class="st1" d="M208.77,385.57c-19.98,0.09-39.21-3.2-56-14.54c-19.81-13.36-32.01-32.01-35.33-55.87
		c-3.95-28.41,5.5-52.61,23.87-73.94c7.96-9.23,16.01-18.44,23.34-28.18c6.86-9.11,9.85-19.66,7.59-31.18
		c-2.94-14.98-17.95-25.31-33.54-23.41c-7.7,0.94-14.61,3.71-21.28,8.01c0.56-1.06,1.06-2.18,1.7-3.19
		C135.2,138.5,157.36,122.82,187,119c23.12-2.98,43.24,3.84,58.86,21.34c14.86,16.63,17.07,36.12,10.38,56.9
		c-5.46,17-16.46,29.86-31,39.77c-10.16,6.94-20.71,13.31-30.87,20.23c-15.12,10.32-26.72,23.56-32.11,41.4
		c-10.27,33.98,7.46,75.87,45.15,86.5C207.88,385.31,208.33,385.44,208.77,385.57"/>
	<path class="st1" d="M258.89,232.04c9.85-4.57,19.94-8.76,29.55-13.86c7.26-3.86,13.91-8.85,20.8-13.37
		c2.49-1.64,3.38-3.91,3.38-7.01c0.01-10.83,2.47-21.04,8.78-30.08c0.61-0.86,1.33-1.65,2.17-2.69c4.53,4.22,7.24,9.28,9.25,14.73
		c1.05,2.85,1.85,5.82,2.49,8.78c0.46,2.12,1.31,3.25,3.55,4c13.23,4.43,24.41,11.81,32.39,23.47c6.58,9.61,10.26,20.31,11.29,31.88
		c0.3,3.41,0.28,6.86,0.06,10.28c-0.06,1-1.08,2.4-2.01,2.77c-2.62,1.06-5.38,1.97-8.15,2.43c-14.21,2.36-27.53,0.18-39.94-7.53
		c-13.09-8.14-27.01-14.55-41.87-18.83C280.26,234,269.7,231.94,258.89,232.04"/>
	<path class="st1" d="M296.48,363.16c14.93,1.14,28.98,3.37,36.91,19.02c-32.49,2.94-64.23,3.38-96.1,3.47
		c17.08-6.66,30.06-17.57,36.09-35.21c5.97-17.5,3.43-34.08-6.63-49.58c-16.57-25.5-60.08-34.03-86.88-5.71
		c2.9-7.16,6.74-12.87,11.78-17.76c10.24-9.96,22.78-14.78,36.86-14.89c28.48-0.21,49.92,12.58,64.18,36.93
		c6.3,10.76,8.55,22.87,8.64,35.4C301.37,344.38,299.8,353.57,296.48,363.16"/>
	<path class="st1" d="M383.89,296.76c-3.33-0.74-6.08-1.51-8.88-1.96c-8.05-1.31-15.68,0.38-22.95,3.75
		c-6.18,2.87-12.34,6.01-19.2,6.4c-5.33,0.29-10.73-0.41-16.07-0.92c-2.12-0.21-3.47-1.68-4.59-3.69
		c-11.78-21.06-28.32-36.86-51.15-45.54c-10.99-4.17-22.43-5.8-34.18-5.54c-1.07,0.02-2.15,0-3.47-0.49
		c1.13-0.51,2.23-1.13,3.39-1.51c9.96-3.24,20.15-4.09,30.59-3.14c15.23,1.4,29.99,4.71,43.74,11.41
		c8.74,4.26,16.91,9.66,25.43,14.38c9.98,5.54,20.82,8.2,32.11,9.21c6.22,0.56,12.35,1.47,17.68,5.02
		C380.71,287.07,383.58,290.95,383.89,296.76"/>
	<path class="st1" d="M220.35,293.9c-21.51-0.01-38.98,17.35-39.03,38.78c-0.05,21.62,17.37,38.98,39.09,38.93
		c21.6-0.04,38.84-17.29,38.82-38.86C259.22,311.22,241.9,293.91,220.35,293.9z M220.09,350.67c-9.81-0.04-17.82-8.07-17.85-17.87
		c-0.01-9.84,8.19-17.97,18.13-17.97c9.94,0,18.04,8.2,17.9,18.12C238.15,343.03,230.28,350.7,220.09,350.67z"/>
</g>
</svg>
